<svg width="20" height="17" viewBox="0 0 20 17" fill="none" xmlns="http://www.w3.org/2000/svg">
<path d="M19.0476 5.95237H15.8132L12.4152 0.288903C12.2466 0.00756928 11.8809 -0.0842841 11.5984 0.084875C11.3165 0.254036 11.2253 0.619645 11.3944 0.901569L14.4249 5.95237H4.62275L7.65322 0.901531C7.82238 0.619598 7.73113 0.253998 7.4492 0.084835C7.16611 -0.0843241 6.80166 0.0075292 6.6325 0.288855L3.23446 5.95233H0V7.14282H1.29192L2.80413 15.2094C2.96222 16.0539 3.70046 16.6666 4.55963 16.6666H14.488C15.3472 16.6666 16.0854 16.0539 16.2429 15.2099L17.7557 7.14282H19.0477L19.0476 5.95237ZM15.0728 14.9908C15.0204 15.2721 14.7745 15.4762 14.488 15.4762H4.55963C4.27305 15.4762 4.02719 15.2721 3.97429 14.9902L2.50275 7.14282H16.5449L15.0728 14.9908Z" fill="white"/>
</svg>
