<svg width="47" height="49" viewBox="0 0 47 49" fill="none" xmlns="http://www.w3.org/2000/svg">
<path d="M21.1537 49L6.03328 6.23636C5.63603 5.09798 5.21395 4.23182 4.76704 3.63788C4.36978 3.04394 3.79873 2.64798 3.05388 2.45C2.35869 2.25202 1.34073 2.15303 0 2.15303V0H17.8764V2.15303H14.2266C13.3825 2.15303 12.8611 2.37576 12.6624 2.82121C12.4638 3.21717 12.5135 3.86061 12.8114 4.75152L25.2504 40.6106L25.4739 40.6849L37.8384 4.9C38.0866 3.9596 38.1363 3.26667 37.9873 2.82121C37.8384 2.37576 37.2921 2.15303 36.3487 2.15303H32.7734V0H47V2.15303C45.3117 2.15303 44.0951 2.4005 43.3502 2.89545C42.6054 3.3904 41.935 4.4298 41.3391 6.01363L25.3249 49H21.1537Z" fill="white"/>
</svg>
